<svg width="30" height="30" viewBox="0 0 30 30" fill="none" xmlns="http://www.w3.org/2000/svg">
<rect x="15.7974" y="2.7373" width="1.15959" height="19.3265" transform="rotate(48.7691 15.7974 2.7373)" fill="#5D87E2"/>
<rect x="15.9882" width="1.15959" height="21.2592" transform="rotate(48.7691 15.9882 0)" fill="#5D87E2"/>
<rect x="4.56018" y="19.2148" width="1.15959" height="14.3403" transform="rotate(-41.2309 4.56018 19.2148)" fill="#8A76DD"/>
<rect x="7.28748" y="19.3945" width="1.15959" height="12.4076" transform="rotate(-41.2309 7.28748 19.3945)" fill="#8A76DD"/>
<rect x="10.0148" y="19.5742" width="1.15959" height="10.475" transform="rotate(-41.2309 10.0148 19.5742)" fill="#8A76DD"/>
<rect x="15.5112" y="7.08008" width="1.15959" height="16.2343" transform="rotate(-41.2309 15.5112 7.08008)" fill="#5D87E2"/>
<rect x="15.619" y="5.44336" width="1.15959" height="17.3939" transform="rotate(48.7691 15.619 5.44336)" fill="#5D87E2"/>
<rect x="15.6909" y="4.35254" width="1.15959" height="18.1669" transform="rotate(-41.2309 15.6909 4.35254)" fill="#5D87E2"/>
<rect x="27.5179" y="16.6123" width="1.15959" height="1.15959" transform="rotate(-41.2309 27.5179 16.6123)" fill="#5D87E2"/>
<rect x="1.92957" y="16.2256" width="1.15959" height="1.15959" transform="rotate(-41.2309 1.92957 16.2256)" fill="#5D87E2"/>
<rect x="15.8804" y="1.63672" width="1.15959" height="20.0996" transform="rotate(-41.2309 15.8804 1.63672)" fill="#5D87E2"/>
<rect x="4.56018" y="19.2148" width="1.15959" height="15.4612" transform="rotate(-131.231 4.56018 19.2148)" fill="#8A76DD"/>
<rect x="15.9905" y="10.5654" width="1.15959" height="1.15959" transform="rotate(-131.231 15.9905 10.5654)" fill="#8A76DD"/>
<rect x="16.1451" y="28.1133" width="1.15959" height="1.15959" transform="rotate(-131.231 16.1451 28.1133)" fill="#8A76DD"/>
<rect x="7.28748" y="19.3945" width="1.15959" height="13.5286" transform="rotate(-131.231 7.28748 19.3945)" fill="#8A76DD"/>
<rect x="10.0148" y="19.5742" width="1.15959" height="11.5959" transform="rotate(-131.231 10.0148 19.5742)" fill="#8A76DD"/>
</svg>
