<svg width="36" height="31" viewBox="0 0 36 31" fill="none" xmlns="http://www.w3.org/2000/svg">
<path d="M24.2217 17.822C22.817 17.822 21.6783 19.4009 21.6783 21.3417C21.6783 23.2865 22.817 24.8654 24.2217 24.8654C25.6265 24.8654 26.7652 23.2865 26.7652 21.3417C26.7633 19.4009 25.6265 17.822 24.2217 17.822ZM33.077 8.65956C33.3685 7.94543 33.3802 3.88761 31.8346 0C31.8346 0 28.2913 0.389348 22.9304 4.06957C21.8054 3.75652 19.9017 3.60391 18.002 3.60391C16.0983 3.60391 14.1965 3.75652 13.0715 4.06957C7.70869 0.389348 4.16543 0 4.16543 0C2.62174 3.88761 2.63739 7.94543 2.925 8.65956C1.10935 10.6317 0 13.0011 0 16.2333C0 30.2928 11.6667 30.5178 14.6093 30.5178L18.002 30.5217L21.3907 30.5178C24.3372 30.5178 36 30.2928 36 16.2333C36 13.0011 34.8926 10.6317 33.077 8.65956V8.65956ZM18.0548 28.7902H17.9452C10.5672 28.7902 4.81891 27.9117 4.81891 20.7391C4.81891 19.0193 5.42543 17.4267 6.86739 16.1041C9.26804 13.8991 13.3337 15.0652 17.9452 15.0652H18.0548C22.6663 15.0652 26.7339 13.8991 29.1365 16.1041C30.5746 17.4267 31.1811 19.0193 31.1811 20.7391C31.1811 27.9117 25.4348 28.7902 18.0548 28.7902ZM11.7802 17.822C10.3754 17.822 9.23674 19.4009 9.23674 21.3417C9.23674 23.2865 10.3754 24.8654 11.7802 24.8654C13.187 24.8654 14.3257 23.2865 14.3257 21.3417C14.3257 19.4009 13.187 17.822 11.7802 17.822V17.822Z" fill="white"/>
</svg>
