<svg width="36" height="35" viewBox="0 0 36 35" fill="none" xmlns="http://www.w3.org/2000/svg">
<path d="M17.3774 7.16763C20.1257 7.16763 22.7154 8.38597 24.6132 10.2905V10.2962C24.6132 9.38156 25.2285 8.68971 26.079 8.68971H26.295C27.6371 8.68971 27.9059 9.95529 27.9059 10.3547L27.9116 24.5686C27.8182 25.5 28.8734 25.9815 29.4595 25.3831C31.7376 23.0398 34.4679 13.3246 28.0409 7.69974C22.0471 2.44953 14.0025 3.31688 9.72539 6.26428C5.17941 9.40518 2.27363 16.3428 5.09617 22.8631C8.17857 29.9718 16.9904 32.0923 22.235 29.9774C24.8899 28.9053 26.1139 32.4895 23.3543 33.6628C19.1953 35.4369 7.60484 35.2557 2.19151 25.8814C-1.46575 19.549 -1.27226 8.40959 8.43169 2.63852C15.8486 -1.77921 25.6346 -0.555248 31.5339 5.60393C37.6988 12.0489 37.3421 24.1073 31.3236 28.7951C28.5978 30.9269 24.5502 28.8536 24.5794 25.7475L24.549 24.7351C22.6512 26.6149 20.1257 27.7174 17.3774 27.7174C11.9404 27.7174 7.15373 22.9295 7.15373 17.4982C7.15373 12.0084 11.9404 7.16988 17.3774 7.16988V7.16763ZM24.2161 17.1056C24.0102 13.1266 21.0572 10.7304 17.4888 10.7304H17.3538C13.2409 10.7304 10.9561 13.9703 10.9561 17.6433C10.9561 21.7618 13.7156 24.3627 17.3369 24.3627C21.3789 24.3627 24.0327 21.4052 24.2262 17.9065L24.2161 17.1056Z" fill="white"/>
</svg>
