<svg width="36" height="36" viewBox="0 0 36 36" fill="none" xmlns="http://www.w3.org/2000/svg">
<path d="M8 4C8 6.124 6.58 7.952 3.998 7.952C1.568 7.952 0 6.228 0 4.104C0 1.924 1.52 0 4 0C6.48 0 7.952 1.82 8 4Z" fill="white"/>
<path d="M0 35.9795V9.97949H8V35.9795H0ZM12 18.8675C12 15.7775 11.898 13.1955 11.796 10.9655H18.984L19.34 14.4115H19.492C20.504 12.7895 22.984 10.4115 27.136 10.4115C32.2 10.4115 36 13.8015 36 21.0955V35.9795H28V22.2575C28 19.0695 26.786 16.6375 24 16.6375C21.876 16.6375 20.812 18.3575 20.254 19.7755C20.05 20.2835 20 20.9915 20 21.7015V35.9795H12V18.8675Z" fill="white"/>
</svg>
