<svg width="255" height="37" viewBox="0 0 255 37" fill="none" xmlns="http://www.w3.org/2000/svg">
<path d="M52.704 22.248H66.192L66.24 25.176H52.632L52.704 22.248ZM56.328 34.92C56.328 35.32 56.192 35.64 55.92 35.88C55.648 36.12 55.232 36.24 54.672 36.24H46.656C46.096 36.24 45.68 36.12 45.408 35.88C45.136 35.64 45 35.32 45 34.92C45 34.616 45.072 34.368 45.216 34.176C45.36 33.968 45.592 33.768 45.912 33.576L46.416 33.288C46.976 32.984 47.448 32.568 47.832 32.04C48.216 31.496 48.592 30.608 48.96 29.376L55.224 8.688C55.512 7.744 55.6 7.048 55.488 6.6C55.392 6.152 55.072 5.784 54.528 5.496C54.112 5.272 53.816 5.048 53.64 4.824C53.48 4.584 53.4 4.296 53.4 3.96C53.4 3.544 53.536 3.224 53.808 3C54.08 2.76 54.504 2.64 55.08 2.64H69.96C70.536 2.64 70.96 2.76 71.232 3C71.52 3.224 71.664 3.544 71.664 3.96C71.664 4.328 71.568 4.632 71.376 4.872C71.2 5.096 70.936 5.288 70.584 5.448C70.232 5.624 70.016 5.864 69.936 6.168C69.872 6.472 69.944 6.952 70.152 7.608L77.304 30.36C77.592 31.272 77.864 31.952 78.12 32.4C78.376 32.832 78.712 33.152 79.128 33.36C79.592 33.584 79.904 33.808 80.064 34.032C80.24 34.256 80.328 34.552 80.328 34.92C80.328 35.32 80.184 35.64 79.896 35.88C79.624 36.12 79.2 36.24 78.624 36.24H65.736C65.144 36.24 64.712 36.12 64.44 35.88C64.168 35.64 64.032 35.32 64.032 34.92C64.032 34.584 64.12 34.32 64.296 34.128C64.472 33.92 64.744 33.736 65.112 33.576L65.88 33.24C66.312 33.064 66.512 32.824 66.48 32.52C66.448 32.2 66.328 31.704 66.12 31.032L58.728 6.768L59.688 5.784L52.68 28.92C52.424 29.736 52.32 30.408 52.368 30.936C52.432 31.464 52.648 31.912 53.016 32.28C53.4 32.632 53.952 32.976 54.672 33.312L55.296 33.6C55.616 33.76 55.864 33.936 56.04 34.128C56.232 34.32 56.328 34.584 56.328 34.92Z" fill="#F7F7F7"/>
<path d="M94.4482 14.544V31.944C94.4482 32.504 94.4963 32.904 94.5923 33.144C94.6883 33.368 94.8562 33.536 95.0962 33.648L95.6722 33.888C96.1202 34.144 96.3442 34.512 96.3442 34.992C96.3442 35.824 95.8403 36.24 94.8323 36.24H83.9603C83.4482 36.24 83.0723 36.136 82.8322 35.928C82.5922 35.72 82.4723 35.432 82.4723 35.064C82.4723 34.808 82.5363 34.584 82.6642 34.392C82.8083 34.184 83.0402 34.016 83.3602 33.888L83.9603 33.648C84.2003 33.552 84.3603 33.384 84.4403 33.144C84.5363 32.904 84.5843 32.504 84.5843 31.944V19.44C84.5843 19.008 84.5202 18.704 84.3923 18.528C84.2803 18.336 84.1043 18.208 83.8643 18.144L83.2402 18C82.9523 17.92 82.7442 17.792 82.6162 17.616C82.4883 17.44 82.4243 17.224 82.4243 16.968C82.4243 16.648 82.5123 16.4 82.6883 16.224C82.8643 16.032 83.1842 15.848 83.6483 15.672L89.7682 13.512C90.4562 13.24 91.0083 13.048 91.4243 12.936C91.8403 12.824 92.2482 12.768 92.6483 12.768C93.2402 12.768 93.6882 12.936 93.9922 13.272C94.2962 13.608 94.4482 14.032 94.4482 14.544ZM93.6323 20.304L92.4082 19.008L93.1763 18.312C95.3203 16.344 97.1603 14.928 98.6963 14.064C100.248 13.2 101.672 12.768 102.968 12.768C104.904 12.768 106.416 13.416 107.504 14.712C108.608 16.008 109.264 17.744 109.472 19.92L110.648 31.944C110.712 32.504 110.776 32.904 110.84 33.144C110.904 33.384 111.056 33.552 111.296 33.648L111.896 33.888C112.216 34.016 112.44 34.184 112.568 34.392C112.712 34.584 112.784 34.808 112.784 35.064C112.784 35.432 112.664 35.72 112.424 35.928C112.184 36.136 111.808 36.24 111.296 36.24H100.28C99.2723 36.24 98.7682 35.824 98.7682 34.992C98.7682 34.512 98.9922 34.144 99.4403 33.888L100.016 33.648C100.256 33.536 100.432 33.368 100.544 33.144C100.672 32.904 100.712 32.504 100.664 31.944L99.6562 21.24C99.5762 20.28 99.3522 19.56 98.9842 19.08C98.6162 18.6 98.0562 18.36 97.3042 18.36C96.8242 18.36 96.3363 18.464 95.8403 18.672C95.3603 18.88 94.9042 19.176 94.4722 19.56L93.6323 20.304Z" fill="#F7F7F7"/>
<path d="M128.296 33.168V32.664L127.6 32.736V16.8C127.6 16.208 127.44 15.736 127.12 15.384C126.8 15.016 126.376 14.832 125.848 14.832C125.4 14.832 125.016 14.944 124.696 15.168C124.392 15.392 124.24 15.696 124.24 16.08V18.696C124.24 19.976 123.792 20.992 122.896 21.744C122 22.496 120.736 22.872 119.104 22.872C117.76 22.872 116.744 22.576 116.056 21.984C115.384 21.392 115.048 20.552 115.048 19.464C115.048 18.44 115.504 17.416 116.416 16.392C117.344 15.368 118.728 14.52 120.568 13.848C122.424 13.16 124.744 12.816 127.528 12.816C130.856 12.816 133.328 13.432 134.944 14.664C136.576 15.896 137.392 17.592 137.392 19.752V31.296C137.392 31.616 137.464 31.88 137.608 32.088C137.768 32.28 138 32.376 138.304 32.376C138.576 32.376 138.8 32.304 138.976 32.16C139.152 32 139.304 31.808 139.432 31.584C139.528 31.488 139.624 31.408 139.72 31.344C139.816 31.264 139.936 31.224 140.08 31.224C140.304 31.224 140.464 31.312 140.56 31.488C140.656 31.648 140.704 31.856 140.704 32.112C140.704 32.736 140.464 33.424 139.984 34.176C139.504 34.912 138.768 35.544 137.776 36.072C136.8 36.6 135.56 36.864 134.056 36.864C132.296 36.864 130.896 36.512 129.856 35.808C128.816 35.104 128.296 34.224 128.296 33.168ZM114.088 31.2C114.088 29.056 115.04 27.368 116.944 26.136C118.848 24.904 121.616 24.288 125.248 24.288C126.144 24.288 126.912 24.352 127.552 24.48C128.192 24.608 128.728 24.8 129.16 25.056L128.464 26.736C128.112 26.544 127.784 26.408 127.48 26.328C127.176 26.248 126.84 26.208 126.472 26.208C125.704 26.208 125.096 26.488 124.648 27.048C124.2 27.608 123.976 28.44 123.976 29.544C123.976 30.648 124.2 31.48 124.648 32.04C125.096 32.6 125.68 32.88 126.4 32.88C126.848 32.88 127.272 32.768 127.672 32.544C128.072 32.32 128.376 32.048 128.584 31.728L129.112 33.288C128.376 34.44 127.296 35.328 125.872 35.952C124.464 36.56 122.952 36.864 121.336 36.864C119.176 36.864 117.424 36.328 116.08 35.256C114.752 34.168 114.088 32.816 114.088 31.2Z" fill="#F7F7F7"/>
<path d="M165.188 19.968C165.188 21.184 164.747 22.2 163.868 23.016C163.004 23.832 161.836 24.24 160.364 24.24C158.924 24.24 157.836 23.848 157.1 23.064C156.364 22.28 155.995 21.256 155.995 19.992V18.888C155.995 17.864 155.787 17.064 155.371 16.488C154.971 15.896 154.443 15.6 153.787 15.6C153.228 15.6 152.708 15.824 152.228 16.272C151.747 16.72 151.364 17.392 151.076 18.288C150.803 19.184 150.668 20.312 150.668 21.672C150.668 23.576 150.971 25.168 151.579 26.448C152.188 27.728 153.028 28.696 154.1 29.352C155.172 29.992 156.396 30.312 157.771 30.312C158.876 30.312 159.852 30.168 160.7 29.88C161.563 29.576 162.347 29.016 163.051 28.2C163.419 27.864 163.7 27.64 163.892 27.528C164.084 27.4 164.275 27.336 164.467 27.336C164.74 27.336 164.932 27.472 165.044 27.744C165.172 28 165.236 28.32 165.236 28.704C165.172 30.192 164.668 31.56 163.724 32.808C162.796 34.04 161.507 35.024 159.859 35.76C158.227 36.496 156.331 36.864 154.172 36.864C151.836 36.864 149.731 36.4 147.859 35.472C146.003 34.544 144.531 33.232 143.443 31.536C142.371 29.824 141.836 27.808 141.836 25.488C141.836 23.04 142.371 20.864 143.443 18.96C144.515 17.04 146.027 15.528 147.979 14.424C149.932 13.32 152.228 12.768 154.868 12.768C157.028 12.768 158.876 13.088 160.411 13.728C161.948 14.368 163.123 15.232 163.939 16.32C164.771 17.408 165.188 18.624 165.188 19.968Z" fill="#F7F7F7"/>
<path d="M181.827 33.168V32.664L181.131 32.736V16.8C181.131 16.208 180.971 15.736 180.651 15.384C180.331 15.016 179.907 14.832 179.379 14.832C178.931 14.832 178.547 14.944 178.227 15.168C177.923 15.392 177.771 15.696 177.771 16.08V18.696C177.771 19.976 177.323 20.992 176.427 21.744C175.531 22.496 174.267 22.872 172.635 22.872C171.291 22.872 170.275 22.576 169.587 21.984C168.915 21.392 168.579 20.552 168.579 19.464C168.579 18.44 169.035 17.416 169.947 16.392C170.875 15.368 172.259 14.52 174.099 13.848C175.955 13.16 178.275 12.816 181.059 12.816C184.387 12.816 186.859 13.432 188.475 14.664C190.107 15.896 190.923 17.592 190.923 19.752V31.296C190.923 31.616 190.995 31.88 191.139 32.088C191.299 32.28 191.531 32.376 191.835 32.376C192.107 32.376 192.331 32.304 192.507 32.16C192.683 32 192.835 31.808 192.963 31.584C193.059 31.488 193.155 31.408 193.251 31.344C193.347 31.264 193.467 31.224 193.611 31.224C193.835 31.224 193.995 31.312 194.091 31.488C194.187 31.648 194.235 31.856 194.235 32.112C194.235 32.736 193.995 33.424 193.515 34.176C193.035 34.912 192.299 35.544 191.307 36.072C190.331 36.6 189.091 36.864 187.587 36.864C185.827 36.864 184.427 36.512 183.387 35.808C182.347 35.104 181.827 34.224 181.827 33.168ZM167.619 31.2C167.619 29.056 168.571 27.368 170.475 26.136C172.379 24.904 175.147 24.288 178.779 24.288C179.675 24.288 180.443 24.352 181.083 24.48C181.723 24.608 182.259 24.8 182.691 25.056L181.995 26.736C181.643 26.544 181.315 26.408 181.011 26.328C180.707 26.248 180.371 26.208 180.003 26.208C179.235 26.208 178.627 26.488 178.179 27.048C177.731 27.608 177.507 28.44 177.507 29.544C177.507 30.648 177.731 31.48 178.179 32.04C178.627 32.6 179.211 32.88 179.931 32.88C180.379 32.88 180.803 32.768 181.203 32.544C181.603 32.32 181.907 32.048 182.115 31.728L182.643 33.288C181.907 34.44 180.827 35.328 179.403 35.952C177.995 36.56 176.483 36.864 174.867 36.864C172.707 36.864 170.955 36.328 169.611 35.256C168.283 34.168 167.619 32.816 167.619 31.2Z" fill="#F7F7F7"/>
<path d="M207.583 1.776V31.944C207.583 32.504 207.623 32.904 207.703 33.144C207.799 33.384 207.967 33.552 208.207 33.648L208.807 33.888C209.127 34.016 209.351 34.184 209.479 34.392C209.623 34.584 209.695 34.808 209.695 35.064C209.695 35.432 209.575 35.72 209.335 35.928C209.095 36.136 208.719 36.24 208.207 36.24H197.071C196.559 36.24 196.183 36.136 195.943 35.928C195.703 35.72 195.583 35.432 195.583 35.064C195.583 34.808 195.647 34.584 195.775 34.392C195.919 34.184 196.151 34.016 196.471 33.888L197.071 33.648C197.311 33.552 197.479 33.384 197.575 33.144C197.671 32.904 197.719 32.504 197.719 31.944V6.672C197.719 6.24 197.655 5.936 197.527 5.76C197.399 5.568 197.215 5.44 196.975 5.376L196.375 5.256C196.087 5.16 195.871 5.032 195.727 4.872C195.599 4.696 195.535 4.472 195.535 4.2C195.535 3.88 195.623 3.632 195.799 3.456C195.975 3.264 196.303 3.08 196.783 2.904L202.903 0.744C203.623 0.472001 204.183 0.280002 204.583 0.168002C204.999 0.0560007 205.367 0 205.687 0C206.311 0 206.783 0.168 207.103 0.504001C207.423 0.840001 207.583 1.264 207.583 1.776Z" fill="#F7F7F7"/>
<path d="M225.169 12.768C227.793 12.768 230.089 13.28 232.057 14.304C234.041 15.328 235.585 16.752 236.689 18.576C237.794 20.4 238.346 22.512 238.346 24.912C238.346 27.168 237.77 29.2 236.617 31.008C235.465 32.816 233.874 34.248 231.842 35.304C229.81 36.344 227.458 36.864 224.786 36.864C222.161 36.864 219.857 36.352 217.874 35.328C215.906 34.304 214.37 32.888 213.266 31.08C212.178 29.256 211.633 27.152 211.633 24.768C211.633 22.48 212.21 20.432 213.361 18.624C214.513 16.816 216.105 15.392 218.137 14.352C220.169 13.296 222.513 12.768 225.169 12.768ZM226.85 34.032C227.441 33.888 227.889 33.456 228.193 32.736C228.513 32.016 228.658 30.952 228.626 29.544C228.609 28.136 228.386 26.36 227.954 24.216C227.554 22.136 227.097 20.44 226.585 19.128C226.089 17.816 225.546 16.872 224.954 16.296C224.378 15.72 223.77 15.504 223.13 15.648C222.538 15.776 222.082 16.208 221.762 16.944C221.458 17.664 221.322 18.72 221.354 20.112C221.402 21.504 221.626 23.28 222.025 25.44C222.441 27.504 222.897 29.2 223.393 30.528C223.905 31.84 224.449 32.784 225.025 33.36C225.602 33.936 226.21 34.16 226.85 34.032Z" fill="#F7F7F7"/>
<path d="M252.651 14.544V31.944C252.651 32.504 252.699 32.904 252.795 33.144C252.891 33.384 253.059 33.552 253.299 33.648L253.899 33.888C254.219 34.016 254.443 34.184 254.571 34.392C254.715 34.584 254.787 34.808 254.787 35.064C254.787 35.432 254.667 35.72 254.427 35.928C254.187 36.136 253.811 36.24 253.299 36.24H242.163C241.651 36.24 241.275 36.136 241.035 35.928C240.795 35.72 240.675 35.432 240.675 35.064C240.675 34.808 240.739 34.584 240.867 34.392C241.011 34.184 241.243 34.016 241.563 33.888L242.163 33.648C242.403 33.552 242.563 33.384 242.643 33.144C242.739 32.904 242.787 32.504 242.787 31.944V19.44C242.787 19.008 242.723 18.704 242.595 18.528C242.483 18.336 242.307 18.208 242.067 18.144L241.443 18C241.155 17.92 240.947 17.792 240.819 17.616C240.691 17.44 240.627 17.224 240.627 16.968C240.627 16.648 240.715 16.4 240.891 16.224C241.067 16.032 241.387 15.848 241.851 15.672L247.971 13.512C248.707 13.224 249.275 13.032 249.675 12.936C250.075 12.824 250.443 12.768 250.779 12.768C251.403 12.768 251.867 12.936 252.171 13.272C252.491 13.608 252.651 14.032 252.651 14.544ZM247.299 10.8C245.571 10.8 244.203 10.376 243.195 9.528C242.187 8.68 241.683 7.544 241.683 6.12C241.683 4.712 242.187 3.592 243.195 2.76C244.203 1.912 245.571 1.488 247.299 1.488C249.027 1.488 250.395 1.912 251.403 2.76C252.427 3.592 252.939 4.712 252.939 6.12C252.939 7.544 252.427 8.68 251.403 9.528C250.395 10.376 249.027 10.8 247.299 10.8Z" fill="#F7F7F7"/>
<rect x="35.0315" y="19.2109" width="2.52939" height="25.2939" transform="rotate(135.534 35.0315 19.2109)" fill="white"/>
<rect x="32.4827" y="21.9399" width="2.52939" height="21.9026" transform="rotate(135.534 32.4827 21.9399)" fill="white"/>
<rect x="17.2876" y="4.35498" width="21.9501" height="2.24586" transform="rotate(135.534 17.2876 4.35498)" fill="white"/>
<rect x="17.1144" y="9.50488" width="18.2747" height="2.24586" transform="rotate(135.534 17.1144 9.50488)" fill="white"/>
<rect x="5.28064" y="23.8086" width="2.52939" height="17.2032" transform="rotate(-44.908 5.28064 23.8086)" fill="white"/>
<rect x="10.5924" y="23.7773" width="2.52939" height="13.6413" transform="rotate(-44.908 10.5924 23.7773)" fill="white"/>
<rect x="7.03381" y="22.0161" width="13.8349" height="2.52939" transform="rotate(-44.908 7.03381 22.0161)" fill="white"/>
<rect x="12.3456" y="21.9849" width="10.0509" height="2.52939" transform="rotate(-44.908 12.3456 21.9849)" fill="white"/>
</svg>
