<svg width="210" height="37" viewBox="0 0 210 37" fill="none" xmlns="http://www.w3.org/2000/svg">
<path d="M7.704 22.248H21.192L21.24 25.176H7.632L7.704 22.248ZM11.328 34.92C11.328 35.32 11.192 35.64 10.92 35.88C10.648 36.12 10.232 36.24 9.672 36.24H1.656C1.096 36.24 0.68 36.12 0.408 35.88C0.136 35.64 0 35.32 0 34.92C0 34.616 0.072 34.368 0.216 34.176C0.36 33.968 0.592 33.768 0.912 33.576L1.416 33.288C1.976 32.984 2.448 32.568 2.832 32.04C3.216 31.496 3.592 30.608 3.96 29.376L10.224 8.688C10.512 7.744 10.6 7.048 10.488 6.6C10.392 6.152 10.072 5.784 9.528 5.496C9.112 5.272 8.816 5.048 8.64 4.824C8.48 4.584 8.4 4.296 8.4 3.96C8.4 3.544 8.536 3.224 8.808 3C9.08 2.76 9.504 2.64 10.08 2.64H24.96C25.536 2.64 25.96 2.76 26.232 3C26.52 3.224 26.664 3.544 26.664 3.96C26.664 4.328 26.568 4.632 26.376 4.872C26.2 5.096 25.936 5.288 25.584 5.448C25.232 5.624 25.016 5.864 24.936 6.168C24.872 6.472 24.944 6.952 25.152 7.608L32.304 30.36C32.592 31.272 32.864 31.952 33.12 32.4C33.376 32.832 33.712 33.152 34.128 33.36C34.592 33.584 34.904 33.808 35.064 34.032C35.24 34.256 35.328 34.552 35.328 34.92C35.328 35.32 35.184 35.64 34.896 35.88C34.624 36.12 34.2 36.24 33.624 36.24H20.736C20.144 36.24 19.712 36.12 19.44 35.88C19.168 35.64 19.032 35.32 19.032 34.92C19.032 34.584 19.12 34.32 19.296 34.128C19.472 33.92 19.744 33.736 20.112 33.576L20.88 33.24C21.312 33.064 21.512 32.824 21.48 32.52C21.448 32.2 21.328 31.704 21.12 31.032L13.728 6.768L14.688 5.784L7.68 28.92C7.424 29.736 7.32 30.408 7.368 30.936C7.432 31.464 7.648 31.912 8.016 32.28C8.4 32.632 8.952 32.976 9.672 33.312L10.296 33.6C10.616 33.76 10.864 33.936 11.04 34.128C11.232 34.32 11.328 34.584 11.328 34.92Z" fill="#141414"/>
<path d="M49.4482 14.544V31.944C49.4482 32.504 49.4963 32.904 49.5923 33.144C49.6883 33.368 49.8562 33.536 50.0962 33.648L50.6722 33.888C51.1202 34.144 51.3442 34.512 51.3442 34.992C51.3442 35.824 50.8403 36.24 49.8323 36.24H38.9603C38.4482 36.24 38.0723 36.136 37.8322 35.928C37.5922 35.72 37.4723 35.432 37.4723 35.064C37.4723 34.808 37.5363 34.584 37.6642 34.392C37.8083 34.184 38.0402 34.016 38.3602 33.888L38.9603 33.648C39.2003 33.552 39.3603 33.384 39.4403 33.144C39.5363 32.904 39.5843 32.504 39.5843 31.944V19.44C39.5843 19.008 39.5202 18.704 39.3923 18.528C39.2803 18.336 39.1043 18.208 38.8643 18.144L38.2402 18C37.9523 17.92 37.7442 17.792 37.6162 17.616C37.4883 17.44 37.4243 17.224 37.4243 16.968C37.4243 16.648 37.5123 16.4 37.6883 16.224C37.8643 16.032 38.1842 15.848 38.6483 15.672L44.7682 13.512C45.4562 13.24 46.0083 13.048 46.4243 12.936C46.8403 12.824 47.2482 12.768 47.6483 12.768C48.2402 12.768 48.6882 12.936 48.9922 13.272C49.2962 13.608 49.4482 14.032 49.4482 14.544ZM48.6323 20.304L47.4082 19.008L48.1763 18.312C50.3203 16.344 52.1603 14.928 53.6963 14.064C55.2483 13.2 56.6722 12.768 57.9683 12.768C59.9043 12.768 61.4163 13.416 62.5043 14.712C63.6083 16.008 64.2643 17.744 64.4723 19.92L65.6482 31.944C65.7122 32.504 65.7762 32.904 65.8402 33.144C65.9043 33.384 66.0563 33.552 66.2962 33.648L66.8962 33.888C67.2162 34.016 67.4403 34.184 67.5683 34.392C67.7122 34.584 67.7842 34.808 67.7842 35.064C67.7842 35.432 67.6642 35.72 67.4242 35.928C67.1842 36.136 66.8083 36.24 66.2962 36.24H55.2803C54.2723 36.24 53.7682 35.824 53.7682 34.992C53.7682 34.512 53.9922 34.144 54.4403 33.888L55.0163 33.648C55.2562 33.536 55.4323 33.368 55.5443 33.144C55.6722 32.904 55.7122 32.504 55.6642 31.944L54.6562 21.24C54.5762 20.28 54.3522 19.56 53.9842 19.08C53.6162 18.6 53.0562 18.36 52.3042 18.36C51.8242 18.36 51.3363 18.464 50.8403 18.672C50.3603 18.88 49.9042 19.176 49.4722 19.56L48.6323 20.304Z" fill="#141414"/>
<path d="M83.2958 33.168V32.664L82.5997 32.736V16.8C82.5997 16.208 82.4398 15.736 82.1198 15.384C81.7998 15.016 81.3757 14.832 80.8477 14.832C80.3997 14.832 80.0157 14.944 79.6957 15.168C79.3917 15.392 79.2398 15.696 79.2398 16.08V18.696C79.2398 19.976 78.7917 20.992 77.8958 21.744C76.9998 22.496 75.7358 22.872 74.1038 22.872C72.7598 22.872 71.7438 22.576 71.0557 21.984C70.3838 21.392 70.0478 20.552 70.0478 19.464C70.0478 18.44 70.5037 17.416 71.4157 16.392C72.3438 15.368 73.7278 14.52 75.5677 13.848C77.4238 13.16 79.7437 12.816 82.5277 12.816C85.8558 12.816 88.3278 13.432 89.9437 14.664C91.5757 15.896 92.3918 17.592 92.3918 19.752V31.296C92.3918 31.616 92.4638 31.88 92.6077 32.088C92.7678 32.28 92.9997 32.376 93.3037 32.376C93.5757 32.376 93.7998 32.304 93.9758 32.16C94.1518 32 94.3038 31.808 94.4318 31.584C94.5278 31.488 94.6237 31.408 94.7197 31.344C94.8158 31.264 94.9358 31.224 95.0798 31.224C95.3037 31.224 95.4638 31.312 95.5598 31.488C95.6558 31.648 95.7038 31.856 95.7038 32.112C95.7038 32.736 95.4637 33.424 94.9837 34.176C94.5037 34.912 93.7677 35.544 92.7757 36.072C91.7998 36.6 90.5597 36.864 89.0557 36.864C87.2957 36.864 85.8958 36.512 84.8558 35.808C83.8158 35.104 83.2958 34.224 83.2958 33.168ZM69.0878 31.2C69.0878 29.056 70.0397 27.368 71.9437 26.136C73.8477 24.904 76.6158 24.288 80.2477 24.288C81.1438 24.288 81.9118 24.352 82.5518 24.48C83.1917 24.608 83.7278 24.8 84.1598 25.056L83.4638 26.736C83.1118 26.544 82.7838 26.408 82.4798 26.328C82.1758 26.248 81.8398 26.208 81.4717 26.208C80.7038 26.208 80.0957 26.488 79.6478 27.048C79.1998 27.608 78.9758 28.44 78.9758 29.544C78.9758 30.648 79.1998 31.48 79.6478 32.04C80.0957 32.6 80.6797 32.88 81.3997 32.88C81.8477 32.88 82.2718 32.768 82.6718 32.544C83.0718 32.32 83.3757 32.048 83.5837 31.728L84.1117 33.288C83.3757 34.44 82.2957 35.328 80.8717 35.952C79.4638 36.56 77.9517 36.864 76.3357 36.864C74.1757 36.864 72.4238 36.328 71.0798 35.256C69.7517 34.168 69.0878 32.816 69.0878 31.2Z" fill="#141414"/>
<path d="M120.188 19.968C120.188 21.184 119.747 22.2 118.868 23.016C118.004 23.832 116.836 24.24 115.364 24.24C113.924 24.24 112.836 23.848 112.1 23.064C111.364 22.28 110.995 21.256 110.995 19.992V18.888C110.995 17.864 110.787 17.064 110.371 16.488C109.971 15.896 109.443 15.6 108.787 15.6C108.228 15.6 107.708 15.824 107.228 16.272C106.747 16.72 106.364 17.392 106.076 18.288C105.803 19.184 105.668 20.312 105.668 21.672C105.668 23.576 105.971 25.168 106.579 26.448C107.188 27.728 108.028 28.696 109.1 29.352C110.172 29.992 111.396 30.312 112.771 30.312C113.876 30.312 114.852 30.168 115.7 29.88C116.563 29.576 117.347 29.016 118.051 28.2C118.419 27.864 118.7 27.64 118.892 27.528C119.084 27.4 119.275 27.336 119.467 27.336C119.74 27.336 119.932 27.472 120.044 27.744C120.172 28 120.236 28.32 120.236 28.704C120.172 30.192 119.668 31.56 118.724 32.808C117.796 34.04 116.507 35.024 114.859 35.76C113.227 36.496 111.331 36.864 109.172 36.864C106.836 36.864 104.731 36.4 102.859 35.472C101.003 34.544 99.5315 33.232 98.4435 31.536C97.3715 29.824 96.8355 27.808 96.8355 25.488C96.8355 23.04 97.3715 20.864 98.4435 18.96C99.5155 17.04 101.027 15.528 102.979 14.424C104.932 13.32 107.228 12.768 109.868 12.768C112.028 12.768 113.876 13.088 115.411 13.728C116.948 14.368 118.123 15.232 118.939 16.32C119.771 17.408 120.188 18.624 120.188 19.968Z" fill="#141414"/>
<path d="M136.827 33.168V32.664L136.131 32.736V16.8C136.131 16.208 135.971 15.736 135.651 15.384C135.331 15.016 134.907 14.832 134.379 14.832C133.931 14.832 133.547 14.944 133.227 15.168C132.923 15.392 132.771 15.696 132.771 16.08V18.696C132.771 19.976 132.323 20.992 131.427 21.744C130.531 22.496 129.267 22.872 127.635 22.872C126.291 22.872 125.275 22.576 124.587 21.984C123.915 21.392 123.579 20.552 123.579 19.464C123.579 18.44 124.035 17.416 124.947 16.392C125.875 15.368 127.259 14.52 129.099 13.848C130.955 13.16 133.275 12.816 136.059 12.816C139.387 12.816 141.859 13.432 143.475 14.664C145.107 15.896 145.923 17.592 145.923 19.752V31.296C145.923 31.616 145.995 31.88 146.139 32.088C146.299 32.28 146.531 32.376 146.835 32.376C147.107 32.376 147.331 32.304 147.507 32.16C147.683 32 147.835 31.808 147.963 31.584C148.059 31.488 148.155 31.408 148.251 31.344C148.347 31.264 148.467 31.224 148.611 31.224C148.835 31.224 148.995 31.312 149.091 31.488C149.187 31.648 149.235 31.856 149.235 32.112C149.235 32.736 148.995 33.424 148.515 34.176C148.035 34.912 147.299 35.544 146.307 36.072C145.331 36.6 144.091 36.864 142.587 36.864C140.827 36.864 139.427 36.512 138.387 35.808C137.347 35.104 136.827 34.224 136.827 33.168ZM122.619 31.2C122.619 29.056 123.571 27.368 125.475 26.136C127.379 24.904 130.147 24.288 133.779 24.288C134.675 24.288 135.443 24.352 136.083 24.48C136.723 24.608 137.259 24.8 137.691 25.056L136.995 26.736C136.643 26.544 136.315 26.408 136.011 26.328C135.707 26.248 135.371 26.208 135.003 26.208C134.235 26.208 133.627 26.488 133.179 27.048C132.731 27.608 132.507 28.44 132.507 29.544C132.507 30.648 132.731 31.48 133.179 32.04C133.627 32.6 134.211 32.88 134.931 32.88C135.379 32.88 135.803 32.768 136.203 32.544C136.603 32.32 136.907 32.048 137.115 31.728L137.643 33.288C136.907 34.44 135.827 35.328 134.403 35.952C132.995 36.56 131.483 36.864 129.867 36.864C127.707 36.864 125.955 36.328 124.611 35.256C123.283 34.168 122.619 32.816 122.619 31.2Z" fill="#141414"/>
<path d="M162.583 1.776V31.944C162.583 32.504 162.623 32.904 162.703 33.144C162.799 33.384 162.967 33.552 163.207 33.648L163.807 33.888C164.127 34.016 164.351 34.184 164.479 34.392C164.623 34.584 164.695 34.808 164.695 35.064C164.695 35.432 164.575 35.72 164.335 35.928C164.095 36.136 163.719 36.24 163.207 36.24H152.071C151.559 36.24 151.183 36.136 150.943 35.928C150.703 35.72 150.583 35.432 150.583 35.064C150.583 34.808 150.647 34.584 150.775 34.392C150.919 34.184 151.151 34.016 151.471 33.888L152.071 33.648C152.311 33.552 152.479 33.384 152.575 33.144C152.671 32.904 152.719 32.504 152.719 31.944V6.672C152.719 6.24 152.655 5.936 152.527 5.76C152.399 5.568 152.215 5.44 151.975 5.376L151.375 5.256C151.087 5.16 150.871 5.032 150.727 4.872C150.599 4.696 150.535 4.472 150.535 4.2C150.535 3.88 150.623 3.632 150.799 3.456C150.975 3.264 151.303 3.08 151.783 2.904L157.903 0.744C158.623 0.472001 159.183 0.280002 159.583 0.168002C159.999 0.0560007 160.367 0 160.687 0C161.311 0 161.783 0.168 162.103 0.504001C162.423 0.840001 162.583 1.264 162.583 1.776Z" fill="#141414"/>
<path d="M180.169 12.768C182.793 12.768 185.089 13.28 187.057 14.304C189.041 15.328 190.585 16.752 191.689 18.576C192.794 20.4 193.346 22.512 193.346 24.912C193.346 27.168 192.77 29.2 191.617 31.008C190.465 32.816 188.874 34.248 186.842 35.304C184.81 36.344 182.458 36.864 179.786 36.864C177.161 36.864 174.857 36.352 172.874 35.328C170.906 34.304 169.37 32.888 168.266 31.08C167.178 29.256 166.633 27.152 166.633 24.768C166.633 22.48 167.21 20.432 168.361 18.624C169.513 16.816 171.105 15.392 173.137 14.352C175.169 13.296 177.513 12.768 180.169 12.768ZM181.85 34.032C182.441 33.888 182.889 33.456 183.193 32.736C183.513 32.016 183.658 30.952 183.626 29.544C183.609 28.136 183.386 26.36 182.954 24.216C182.554 22.136 182.097 20.44 181.585 19.128C181.089 17.816 180.546 16.872 179.954 16.296C179.378 15.72 178.77 15.504 178.13 15.648C177.538 15.776 177.082 16.208 176.762 16.944C176.458 17.664 176.322 18.72 176.354 20.112C176.402 21.504 176.626 23.28 177.025 25.44C177.441 27.504 177.897 29.2 178.393 30.528C178.905 31.84 179.449 32.784 180.025 33.36C180.602 33.936 181.21 34.16 181.85 34.032Z" fill="#141414"/>
<path d="M207.651 14.544V31.944C207.651 32.504 207.699 32.904 207.795 33.144C207.891 33.384 208.059 33.552 208.299 33.648L208.899 33.888C209.219 34.016 209.443 34.184 209.571 34.392C209.715 34.584 209.787 34.808 209.787 35.064C209.787 35.432 209.667 35.72 209.427 35.928C209.187 36.136 208.811 36.24 208.299 36.24H197.163C196.651 36.24 196.275 36.136 196.035 35.928C195.795 35.72 195.675 35.432 195.675 35.064C195.675 34.808 195.739 34.584 195.867 34.392C196.011 34.184 196.243 34.016 196.563 33.888L197.163 33.648C197.403 33.552 197.563 33.384 197.643 33.144C197.739 32.904 197.787 32.504 197.787 31.944V19.44C197.787 19.008 197.723 18.704 197.595 18.528C197.483 18.336 197.307 18.208 197.067 18.144L196.443 18C196.155 17.92 195.947 17.792 195.819 17.616C195.691 17.44 195.627 17.224 195.627 16.968C195.627 16.648 195.715 16.4 195.891 16.224C196.067 16.032 196.387 15.848 196.851 15.672L202.971 13.512C203.707 13.224 204.275 13.032 204.675 12.936C205.075 12.824 205.443 12.768 205.779 12.768C206.403 12.768 206.867 12.936 207.171 13.272C207.491 13.608 207.651 14.032 207.651 14.544ZM202.299 10.8C200.571 10.8 199.203 10.376 198.195 9.528C197.187 8.68 196.683 7.544 196.683 6.12C196.683 4.712 197.187 3.592 198.195 2.76C199.203 1.912 200.571 1.488 202.299 1.488C204.027 1.488 205.395 1.912 206.403 2.76C207.427 3.592 207.939 4.712 207.939 6.12C207.939 7.544 207.427 8.68 206.403 9.528C205.395 10.376 204.027 10.8 202.299 10.8Z" fill="#141414"/>
</svg>
